<svg width="98" height="24" viewBox="0 0 98 24" fill="none" xmlns="http://www.w3.org/2000/svg">
<path fill-rule="evenodd" clip-rule="evenodd" d="M5.87939 15.2922V4.86709H7.62538C8.34829 4.86709 9.02941 4.99586 9.66874 5.2534C10.3081 5.51093 10.8661 5.87258 11.342 6.33807C11.8182 6.80356 12.1951 7.35472 12.473 7.99181C12.7506 8.62917 12.8897 9.32727 12.8897 10.0864C12.8897 10.8003 12.7683 11.4603 12.5259 12.0657C12.2833 12.6714 11.9482 13.1976 11.5206 13.6452C11.0928 14.0925 10.5925 14.4539 10.0193 14.7296C9.44609 15.0053 8.82905 15.1702 8.16769 15.2244C7.97366 15.2426 7.77938 15.2582 7.58561 15.2719C7.39158 15.2854 7.19325 15.2922 6.99036 15.2922H5.87939ZM17.6255 12.8315C17.8636 11.9685 17.9827 11.058 17.9827 10.0998C17.9827 9.1509 17.8613 8.24251 17.6189 7.37488C17.3763 6.50724 17.0368 5.69854 16.6004 4.94826C16.164 4.19823 15.6369 3.52038 15.0198 2.91469C14.4025 2.30927 13.7214 1.78952 12.9762 1.35571C12.231 0.921892 11.4288 0.587768 10.5689 0.352557C9.70918 0.117605 8.8163 0 7.89049 0H1.36958C1.16669 0 1.01471 0.0589325 0.913393 0.176278C0.81182 0.293884 0.761414 0.447576 0.761414 0.637354V19.576C0.761414 19.8112 0.822965 19.9646 0.946321 20.0368C1.06993 20.1092 1.21102 20.1453 1.36958 20.1453H7.89049C8.8163 20.1453 9.7112 20.0301 10.5757 19.7998C11.4397 19.5692 12.2442 19.2419 12.9894 18.8169C13.7346 18.3921 14.4134 17.8768 15.0264 17.2714C15.6391 16.666 16.166 15.9902 16.607 15.2446C17.0477 14.499 17.3874 13.6947 17.6255 12.8315ZM38.1002 19.5827C38.1531 19.4428 38.1795 19.2959 38.1795 19.1422V3.86383C38.1795 3.70131 38.1531 3.55671 38.1002 3.43002C38.0472 3.30358 37.9588 3.19065 37.8357 3.09122C37.7385 2.99179 37.624 2.92844 37.4918 2.90144C37.3595 2.87418 37.2448 2.86068 37.1478 2.86068H35.1771C35.0006 2.86068 34.864 2.8721 34.767 2.89443C34.67 2.91728 34.5885 2.96219 34.5223 3.03021C34.4562 3.09797 34.3944 3.20181 34.3372 3.34201C34.2797 3.4822 34.207 3.66497 34.1188 3.89109L33.7353 5.12478C33.4972 4.77222 33.2196 4.44459 32.902 4.14162C32.5846 3.83891 32.2295 3.57903 31.8371 3.36226C31.4448 3.14548 31.0126 2.97361 30.541 2.84718C30.0694 2.72075 29.56 2.6574 29.0134 2.6574C27.814 2.6574 26.6899 2.8856 25.6404 3.34201C24.591 3.79841 23.6784 4.42642 22.9025 5.22629C22.1264 6.02616 21.5137 6.96623 21.0638 8.04597C20.6142 9.12622 20.3893 10.2945 20.3893 11.5505C20.3893 12.3821 20.4906 13.1796 20.6935 13.9431C20.8964 14.7072 21.1852 15.4188 21.5601 16.0784C21.9347 16.7381 22.382 17.3371 22.9025 17.8747C23.4228 18.4126 24.0024 18.8735 24.6419 19.2574C25.281 19.6417 25.969 19.9376 26.7053 20.1453C27.4414 20.3533 28.2109 20.4574 29.0134 20.4574C29.463 20.4574 29.8971 20.4008 30.3161 20.2878C30.7348 20.1746 31.1274 20.0259 31.4934 19.8405C31.8592 19.6552 32.1943 19.4451 32.4985 19.2099C32.8027 18.9752 33.074 18.7356 33.3121 18.4916L33.4838 19.1014C33.5368 19.2554 33.5877 19.3976 33.6361 19.5285C33.6844 19.6596 33.744 19.7704 33.8146 19.8608C33.885 19.9511 33.9778 20.0212 34.0925 20.0708C34.207 20.1206 34.3569 20.1453 34.5421 20.1453H37.1478C37.2448 20.1453 37.3595 20.1318 37.4918 20.1048C37.624 20.0776 37.7385 20.0145 37.8357 19.915C37.9588 19.8335 38.0472 19.7229 38.1002 19.5827ZM25.1509 11.5504C25.1509 12.1467 25.2411 12.7049 25.4219 13.2246C25.6028 13.7444 25.8606 14.194 26.1957 14.5736C26.5308 14.9532 26.9344 15.2538 27.406 15.475C27.8776 15.6967 28.4002 15.807 28.9734 15.807C29.5641 15.807 30.113 15.6967 30.6201 15.475C31.1272 15.2538 31.5679 14.9532 31.9428 14.5736C32.3174 14.194 32.6108 13.7444 32.8225 13.2246C33.034 12.7049 33.1399 12.1467 33.1399 11.5504C33.1399 10.972 33.034 10.4205 32.8225 9.89638C32.6108 9.37248 32.3174 8.9114 31.9428 8.51367C31.5679 8.11594 31.1272 7.80207 30.6201 7.57153C30.113 7.34099 29.5641 7.22572 28.9734 7.22572C28.4002 7.22572 27.8776 7.34099 27.406 7.57153C26.9344 7.80207 26.5308 8.11594 26.1957 8.51367C25.8606 8.9114 25.6028 9.37248 25.4219 9.89638C25.2411 10.4205 25.1509 10.972 25.1509 11.5504ZM46.4199 19.2461V23.5651C46.4199 23.8052 46.2299 24 45.9956 24H41.7785C41.5439 24 41.3539 23.8052 41.3539 23.5651V3.86371C41.3539 3.68302 41.3871 3.534 41.4532 3.4164C41.5193 3.29905 41.6009 3.19053 41.6979 3.0911C41.8124 2.99167 41.9314 2.92832 42.0551 2.90132C42.1784 2.87406 42.2975 2.86056 42.4122 2.86056H44.4095C44.5769 2.86056 44.7157 2.88782 44.8261 2.94208C44.9363 2.99608 45.0265 3.07085 45.0972 3.16561C45.1678 3.26063 45.2271 3.36889 45.2757 3.49091C45.3241 3.61293 45.3705 3.74637 45.4148 3.89097L45.7127 4.77081C45.8236 5.09844 46.2449 5.1688 46.4505 4.89361C46.5392 4.77496 46.6284 4.65528 46.7175 4.53482C46.9688 4.19602 47.2664 3.88864 47.6104 3.61293C47.9544 3.33722 48.3642 3.10927 48.8404 2.92832C49.3166 2.74763 49.8987 2.65729 50.5864 2.65729C51.7944 2.65729 52.9076 2.88549 53.9261 3.34189C54.9446 3.79829 55.8221 4.4263 56.5584 5.22617C57.2945 6.02605 57.87 6.96611 58.2844 8.04611C58.6988 9.12611 58.906 10.2944 58.906 11.5504C58.906 12.7976 58.6988 13.9635 58.2844 15.0479C57.87 16.1326 57.2945 17.0747 56.5584 17.8746C55.8221 18.6745 54.9446 19.3048 53.9261 19.7659C52.9076 20.2267 51.7944 20.4573 50.5864 20.4573C50.0129 20.4573 49.5192 20.3872 49.1051 20.247C48.6905 20.107 48.3224 19.924 48.0005 19.6981C47.6785 19.4723 47.3943 19.2236 47.1474 18.9523C46.8872 18.6664 46.4199 18.8552 46.4199 19.2461ZM46.0503 11.347C46.0767 10.7868 46.2069 10.258 46.4407 9.7608C46.674 9.2639 46.9784 8.83216 47.3533 8.4661C47.7279 8.1003 48.1644 7.81109 48.6626 7.59873C49.1608 7.38636 49.6877 7.27992 50.2432 7.27992C50.8075 7.27992 51.3232 7.39311 51.7908 7.61898C52.2582 7.84484 52.6591 8.15223 52.9945 8.54061C53.3294 8.92951 53.5898 9.38358 53.7749 9.90307C53.9601 10.4231 54.0525 10.9722 54.0525 11.5503C54.0525 12.1469 53.9601 12.7074 53.7749 13.2313C53.5898 13.7558 53.3294 14.2098 52.9945 14.5938C52.6591 14.978 52.2582 15.2831 51.7908 15.5089C51.3232 15.7348 50.8075 15.8477 50.2432 15.8477C49.67 15.8477 49.1277 15.7348 48.6162 15.5089C48.1048 15.2831 47.6595 14.978 47.2803 14.5938C46.9012 14.2098 46.6013 13.7558 46.3811 13.2313C46.1605 12.7074 46.0503 12.1469 46.0503 11.5503V11.347ZM66.6172 19.2332V23.5703C66.6172 23.8076 66.4295 24 66.1979 24H61.9706C61.7391 24 61.5512 23.8076 61.5512 23.5703V3.86371C61.5512 3.68302 61.5844 3.534 61.6505 3.4164C61.7166 3.29905 61.7982 3.19053 61.8952 3.0911C62.0097 2.99167 62.1287 2.92832 62.2523 2.90132C62.3757 2.87406 62.4947 2.86056 62.6095 2.86056H64.6067C64.7742 2.86056 64.913 2.88782 65.0234 2.94208C65.1336 2.99608 65.2238 3.07085 65.2944 3.16561C65.3651 3.26063 65.4244 3.36889 65.473 3.49091C65.5214 3.61293 65.5677 3.74637 65.6121 3.89097L65.913 4.7799C66.0227 5.10363 66.4388 5.17295 66.6422 4.90088C66.7327 4.7799 66.8236 4.65788 66.9148 4.53482C67.1661 4.19602 67.4637 3.88864 67.8077 3.61293C68.1516 3.33722 68.5615 3.10927 69.0377 2.92832C69.5139 2.74763 70.096 2.65729 70.7837 2.65729C71.9916 2.65729 73.1049 2.88549 74.1234 3.34189C75.1419 3.79829 76.0193 4.4263 76.7557 5.22617C77.4918 6.02605 78.0673 6.96611 78.4816 8.04611C78.896 9.12611 79.1032 10.2944 79.1032 11.5504C79.1032 12.7976 78.896 13.9635 78.4816 15.0479C78.0673 16.1326 77.4918 17.0747 76.7557 17.8746C76.0193 18.6745 75.1419 19.3048 74.1234 19.7659C73.1049 20.2267 71.9916 20.4573 70.7837 20.4573C70.2102 20.4573 69.7165 20.3872 69.3024 20.247C68.8877 20.107 68.5197 19.924 68.1977 19.6981C67.8758 19.4723 67.5916 19.2236 67.3446 18.9523C67.3421 18.9497 67.3396 18.9468 67.3373 18.9442C67.0797 18.661 66.6172 18.8461 66.6172 19.2332ZM66.2467 11.347C66.273 10.7868 66.4032 10.258 66.637 9.7608C66.8703 9.2639 67.1747 8.83216 67.5496 8.4661C67.9243 8.1003 68.3607 7.81109 68.8589 7.59873C69.3572 7.38636 69.884 7.27992 70.4395 7.27992C71.0039 7.27992 71.5196 7.39311 71.9872 7.61898C72.4545 7.84484 72.8555 8.15223 73.1908 8.54061C73.5257 8.92951 73.7861 9.38358 73.9712 9.90307C74.1564 10.4231 74.2489 10.9722 74.2489 11.5503C74.2489 12.1469 74.1564 12.7074 73.9712 13.2313C73.7861 13.7558 73.5257 14.2098 73.1908 14.5938C72.8555 14.978 72.4545 15.2831 71.9872 15.5089C71.5196 15.7348 71.0039 15.8477 70.4395 15.8477C69.8663 15.8477 69.324 15.7348 68.8126 15.5089C68.3012 15.2831 67.8559 14.978 67.4767 14.5938C67.0975 14.2098 66.7976 13.7558 66.5775 13.2313C66.3568 12.7074 66.2467 12.1469 66.2467 11.5503V11.347ZM84.9827 23.441L86.1884 20.2296C86.2251 20.132 86.2241 20.0234 86.1853 19.9266L79.9362 4.22978C79.7951 3.8684 79.7928 3.55868 79.9296 3.30114C80.0664 3.0436 80.3681 2.91483 80.8357 2.91483H84.1027C84.3231 2.91483 84.5039 2.98493 84.645 3.12486C84.7859 3.26506 84.8917 3.439 84.9624 3.64669L88.3232 13.4445C88.4493 13.8122 88.9572 13.8103 89.081 13.442L92.3693 3.64669C92.4664 3.35774 92.5897 3.16355 92.7399 3.06385C92.8896 2.96468 93.0968 2.91483 93.3615 2.91483H96.7608C97.0075 2.91483 97.2015 2.94858 97.3429 3.01634C97.4837 3.0841 97.583 3.17471 97.6402 3.28764C97.6977 3.40057 97.7175 3.52727 97.7 3.6672C97.682 3.80739 97.6471 3.94499 97.5941 4.0805C97.259 4.93022 96.893 5.85887 96.4963 6.86643C96.0994 7.87425 95.687 8.92258 95.2597 10.0117C94.8319 11.1007 94.3975 12.208 93.9568 13.3332C93.5158 14.4583 93.0857 15.563 92.6672 16.6477C92.2483 17.7321 91.8448 18.7739 91.4567 19.7724C91.0687 20.7709 90.7138 21.6884 90.3921 22.5246C90.2249 22.9581 90.0704 23.3616 89.9265 23.7396C89.8665 23.8972 89.7186 24 89.5532 24H85.357C85.0754 24 84.8813 23.7105 84.9827 23.441Z" fill="#1F2431"/>
</svg>
